<?xml version="1.0" encoding="UTF-8"?>
<svg id="Layer_2" data-name="Layer 2" xmlns="http://www.w3.org/2000/svg" viewBox="0 0 761.52 122.9">
  <defs>
    <style>
      .cls-1 {
        fill: none;
        stroke: #fff;
        stroke-miterlimit: 10;
      }

      .cls-2 {
        fill: #fff;
      }
    </style>
  </defs>
  <g id="Layer_1-2" data-name="Layer 1">
    <g>
      <g>
        <path class="cls-2" d="M447.44,30.64c0-5.85,2.72-12.82,13.44-12.82,3.95,0,8.05.77,10.97,1.64v15.44h5.28v7.69h-18c-9.23,0-11.69-6.31-11.69-11.95ZM456.31,5.16c2.15,0,3.95,1.79,3.95,3.95s-1.79,4.05-3.95,4.05-4.05-1.79-4.05-4.05,1.79-3.95,4.05-3.95ZM459.54,34.9h3.69v-9.28c-1.23-.36-2.31-.51-3.13-.51-3.33,0-4.97,2.05-4.97,5.28,0,2.46,1.74,4.51,4.41,4.51ZM465.49,5.16c2.15,0,3.95,1.79,3.95,3.95s-1.79,4.05-3.95,4.05-4.05-1.79-4.05-4.05,1.79-3.95,4.05-3.95Z"/>
        <path class="cls-2" d="M476.11,34.9h8.72v7.69h-8.72v-7.69Z"/>
        <path class="cls-2" d="M483.8,34.9h8.72v7.69h-8.72v-7.69Z"/>
        <path class="cls-2" d="M491.49,34.9h8.72v7.69h-8.72v-7.69Z"/>
        <path class="cls-2" d="M499.19,34.9h8.72v7.69h-8.72v-7.69Z"/>
        <path class="cls-2" d="M506.88,34.9h8.72v7.69h-8.72v-7.69Z"/>
        <path class="cls-2" d="M514.57,34.9h8.72v7.69h-8.72v-7.69Z"/>
        <path class="cls-2" d="M522.27,34.9h5.79c-.72-1.33-1.38-2.87-1.38-5.08,0-8.05,3.54-12.05,12.21-12.05,2.62,0,5.74.31,9.38,1.13v7.69c-3.9-1.13-5.79-1.49-7.85-1.49-4.26,0-5.18,2.05-5.18,4.72,0,2.87,1.28,5.08,4.87,5.08h11.54c0,5.18-2.15,7.69-6.26,7.69h-23.13v-7.69Z"/>
        <path class="cls-2" d="M558.73,51.57l1.23-5.54c2.51.62,4.92.97,7.08.97,3.59,0,5.44-.72,5.54-4.41h-4.1c-9.23,0-11.69-6.31-11.69-11.95s2.72-12.82,13.44-12.82c3.95,0,8.05.77,10.97,1.64v15.44h4v7.69h-4v.05c0,6.72-5.28,10.67-12.62,10.67-3.38,0-6.67-.56-9.85-1.74ZM568.89,35.11h3.69v-9.28c-1.23-.36-2.31-.51-3.13-.51-3.33,0-4.97,2.05-4.97,5.33,0,2.41,1.74,4.46,4.41,4.46Z"/>
        <path class="cls-2" d="M584.17,34.9h8.72v7.69h-8.72v-7.69Z"/>
        <path class="cls-2" d="M591.86,34.9h6.1v-14.21l8.62-2.26v16.46h5.33v-7.8l8.62-2.26v10.05h5.23v-14.21l8.62-2.26v16.46c0,5.23-2.1,7.69-6.26,7.69h-36.26v-7.69Z"/>
        <path class="cls-2" d="M641.46,51.57l1.23-5.54c2.51.62,4.92.97,7.08.97,3.59,0,5.44-.72,5.54-4.41h-4.1c-9.23,0-11.69-6.31-11.69-11.95s2.72-12.82,13.44-12.82c3.95,0,8.05.77,10.97,1.64v15.44h4v7.69h-4v.05c0,6.72-5.28,10.67-12.62,10.67-3.38,0-6.67-.56-9.85-1.74ZM651.61,35.11h3.69v-9.28c-1.23-.36-2.31-.51-3.13-.51-3.33,0-4.97,2.05-4.97,5.33,0,2.41,1.74,4.46,4.41,4.46Z"/>
        <path class="cls-2" d="M666.9,34.9h8.72v7.69h-8.72v-7.69Z"/>
        <path class="cls-2" d="M674.59,34.9h8.72v7.69h-8.72v-7.69Z"/>
        <path class="cls-2" d="M682.28,34.9h8.72v7.69h-8.72v-7.69Z"/>
        <path class="cls-2" d="M689.98,34.9h8.72v7.69h-8.72v-7.69Z"/>
        <path class="cls-2" d="M697.67,34.9h8.72v7.69h-8.72v-7.69Z"/>
        <path class="cls-2" d="M705.36,34.9h8.72v7.69h-8.72v-7.69Z"/>
        <path class="cls-2" d="M713.06,34.9h8.72v7.69h-8.72v-7.69Z"/>
        <path class="cls-2" d="M720.75,34.9h8.72v7.69h-8.72v-7.69Z"/>
        <path class="cls-2" d="M736.13,40.59c-2,1.49-4.36,2-7.08,2l-1.18-.77v-6.15l1.18-.77c2.56,0,4.92-1.18,5.44-4,.82-6.56,5.28-10.56,12.87-10.56,8.62,0,12.98,4.67,12.98,12.77s-4.26,12.77-12.98,12.77c-5.44,0-9.18-1.9-11.23-5.28ZM747.37,38.08c3.18,0,4.36-1.69,4.36-4.97s-1.23-4.97-4.36-4.97c-2.92,0-4.36,1.74-4.36,4.97s1.44,4.97,4.36,4.97Z"/>
        <path class="cls-2" d="M445.64,102.55v-8.46h7.69v6.77c0,3.74,2.77,6.31,6.62,6.31h6.56c4.87,0,7.23-1.03,7.23-3.03h-4.1c-9.23,0-11.69-6.36-11.69-11.95,0-5.9,2.72-12.87,13.44-12.87,3.95,0,8.05.82,10.97,1.69v21.33c0,7.74-3.9,12.51-14.98,12.51h-9.08c-7.33,0-12.67-5.13-12.67-12.31ZM466.82,66.7c2.15,0,3.95,1.79,3.95,3.95s-1.79,4.05-3.95,4.05-4.05-1.79-4.05-4.05,1.79-3.95,4.05-3.95ZM470.05,96.65h3.69v-9.28c-1.23-.36-2.31-.51-3.13-.51-3.33,0-4.97,2.05-4.97,5.33,0,2.41,1.74,4.46,4.41,4.46ZM476,66.7c2.15,0,3.95,1.79,3.95,3.95s-1.79,4.05-3.95,4.05-4.05-1.79-4.05-4.05,1.79-3.95,4.05-3.95Z"/>
        <path class="cls-2" d="M487.49,70.65l8.62-2.26v35.75h-8.62v-33.49Z"/>
        <path class="cls-2" d="M497.9,114.09v-6.77c1.95.62,3.74.97,5.44.97,3.85,0,6.36-2.56,6.36-6v-20.05l8.62-2.26v16.46h5.03v7.69h-5.08c-.56,8-4.97,12.05-13.18,12.05-2.72,0-5.85-1.18-7.18-2.1Z"/>
        <path class="cls-2" d="M522.32,96.45h8.72v7.69h-8.72v-7.69Z"/>
        <path class="cls-2" d="M530.01,96.45h8.72v7.69h-8.72v-7.69Z"/>
        <path class="cls-2" d="M537.7,96.45h8.72v7.69h-8.72v-7.69Z"/>
        <path class="cls-2" d="M545.4,96.5h7.74c-2.26-2.36-4.97-5.23-4.97-7.33,0-4.67,6.87-9.74,14.36-9.74s14.51,5.03,14.51,9.74c0,2.1-2.77,4.92-5.03,7.28h7.8v7.69h-34.41v-7.64ZM562.58,95.68c2.46-1.74,5.85-4.56,5.85-5.49,0-1.28-2.77-3.44-5.79-3.44s-5.85,1.74-5.85,3.44c0,1.08,3.28,3.74,5.8,5.49Z"/>
        <path class="cls-2" d="M578.78,96.45h8.72v7.69h-8.72v-7.69Z"/>
        <path class="cls-2" d="M586.48,96.45h8.72v7.69h-8.72v-7.69Z"/>
        <path class="cls-2" d="M594.17,96.45h5.54v-25.8l8.62-2.26v28.05c0,5.23-2.1,7.69-6.26,7.69h-7.9v-7.69Z"/>
        <path class="cls-2" d="M613.46,70.65l8.62-2.26v35.75h-8.62v-33.49Z"/>
        <path class="cls-2" d="M634.64,114.09v-6.77c1.95.62,3.74.97,5.44.97,3.85,0,6.36-2.56,6.36-6v-20.05l8.62-2.26v22.36c0,9.18-4.41,13.85-13.23,13.85-2.72,0-5.85-1.18-7.18-2.1Z"/>
        <path class="cls-2" d="M660.18,96.45v-25.8l8.62-2.26v28.05h4.56v7.69h-7.03c-4.1,0-6.15-2.46-6.15-7.69Z"/>
        <path class="cls-2" d="M672.33,96.45h8.72v7.69h-8.72v-7.69Z"/>
        <path class="cls-2" d="M680.03,96.45h8.72v7.69h-8.72v-7.69Z"/>
        <path class="cls-2" d="M687.72,96.45h8.72v7.69h-8.72v-7.69Z"/>
        <path class="cls-2" d="M695.41,96.45h5.74v-14.21l8.62-2.26v16.46h5.08v7.69h-19.44v-7.69ZM704.95,108.75c2.15,0,3.95,1.79,3.95,3.95s-1.79,4.05-3.95,4.05-4.05-1.79-4.05-4.05,1.79-3.95,4.05-3.95Z"/>
        <path class="cls-2" d="M713.83,96.45h20.21c-2.05-6-4.46-8.87-7.38-8.87-1.49,0-3.08.72-4.87,2.05l-4.67-6.15c3.54-2.77,6.87-4.1,9.9-4.1,7.08,0,12.21,5.9,15.64,17.08h3.95c0,4.97-2.21,7.69-6.31,7.69h-26.46v-7.69ZM727.06,66.7c2.15,0,3.95,1.79,3.95,3.95s-1.79,4.05-3.95,4.05-4.05-1.79-4.05-4.05,1.79-3.95,4.05-3.95Z"/>
        <path class="cls-2" d="M750.91,61.06h1.59c-.21-.46-.31-1.08-.31-1.74,0-4.51,2.31-5.79,8.05-4.67v3.59c-3.9-1.13-4.51-.36-4.51,1.08,0,.97.51,1.74,1.54,1.74h4.26c0,2.56-.87,3.59-2.51,3.59h-8.1v-3.59ZM751.73,70.65l8.62-2.26v35.75h-8.62v-33.49Z"/>
      </g>
      <g>
        <path class="cls-2" d="M0,41v-8.46h7.69v6.77c0,3.74,2.77,6.31,6.62,6.31h6.56c4.87,0,7.23-1.03,7.23-3.03h-4.1c-9.23,0-11.69-6.36-11.69-11.95,0-5.9,2.72-12.87,13.44-12.87,3.95,0,8.05.82,10.97,1.69v21.33c0,7.74-3.9,12.51-14.98,12.51h-9.08c-7.33,0-12.67-5.13-12.67-12.31ZM21.18,5.16c2.15,0,3.95,1.79,3.95,3.95s-1.79,4.05-3.95,4.05-4.05-1.79-4.05-4.05,1.79-3.95,4.05-3.95ZM24.41,35.11h3.69v-9.28c-1.23-.36-2.31-.51-3.13-.51-3.33,0-4.97,2.05-4.97,5.33,0,2.41,1.74,4.46,4.41,4.46ZM30.36,5.16c2.15,0,3.95,1.79,3.95,3.95s-1.79,4.05-3.95,4.05-4.05-1.79-4.05-4.05,1.79-3.95,4.05-3.95Z"/>
        <path class="cls-2" d="M41.85,9.1l8.62-2.26v35.75h-8.62V9.1Z"/>
        <path class="cls-2" d="M52.26,52.54v-6.77c1.95.62,3.74.97,5.44.97,3.85,0,6.36-2.56,6.36-6v-20.05l8.62-2.26v16.46h5.03v7.69h-5.08c-.56,8-4.97,12.05-13.18,12.05-2.72,0-5.85-1.18-7.18-2.1Z"/>
        <path class="cls-2" d="M76.68,34.95h7.74c-2.26-2.36-4.97-5.23-4.97-7.33,0-4.67,6.87-9.74,14.36-9.74s14.51,5.03,14.51,9.74c0,2.1-2.77,4.92-5.03,7.28h7.8v7.69h-34.41v-7.64ZM93.86,34.13c2.46-1.74,5.85-4.56,5.85-5.49,0-1.28-2.77-3.44-5.79-3.44s-5.85,1.74-5.85,3.44c0,1.08,3.28,3.74,5.8,5.49Z"/>
        <path class="cls-2" d="M110.06,34.9h5.54V9.1l8.62-2.26v28.05c0,5.23-2.1,7.69-6.26,7.69h-7.9v-7.69Z"/>
        <path class="cls-2" d="M129.35,9.1l8.62-2.26v35.75h-8.62V9.1Z"/>
        <path class="cls-2" d="M150.53,52.54v-6.77c1.95.62,3.74.97,5.44.97,3.85,0,6.36-2.56,6.36-6v-20.05l8.62-2.26v22.36c0,9.18-4.41,13.85-13.23,13.85-2.72,0-5.85-1.18-7.18-2.1Z"/>
        <path class="cls-2" d="M176.07,34.9V9.1l8.62-2.26v28.05h4.56v7.69h-7.03c-4.1,0-6.15-2.46-6.15-7.69Z"/>
        <path class="cls-2" d="M188.23,34.9h5.74v-14.21l8.62-2.26v16.46h5.08v7.69h-19.44v-7.69ZM197.76,47.21c2.15,0,3.95,1.79,3.95,3.95s-1.79,4.05-3.95,4.05-4.05-1.79-4.05-4.05,1.79-3.95,4.05-3.95Z"/>
        <path class="cls-2" d="M206.64,34.9h20.21c-2.05-6-4.46-8.87-7.38-8.87-1.49,0-3.08.72-4.87,2.05l-4.67-6.15c3.54-2.77,6.87-4.1,9.9-4.1,7.08,0,12.21,5.9,15.64,17.08h3.95c0,4.97-2.21,7.69-6.31,7.69h-26.46v-7.69ZM219.87,5.16c2.15,0,3.95,1.79,3.95,3.95s-1.79,4.05-3.95,4.05-4.05-1.79-4.05-4.05,1.79-3.95,4.05-3.95Z"/>
        <path class="cls-2" d="M244.54,34.9h6.62v-18.46l8.62-2.26v20.72h6.15V9.1l8.62-2.26v28.05c0,5.23-2.15,7.69-6.26,7.69h-23.75v-7.69ZM249.77,6.8h1.59c-.21-.46-.31-1.08-.31-1.74,0-4.51,2.31-5.8,8.05-4.67v3.59c-3.9-1.13-4.51-.36-4.51,1.08,0,.97.51,1.74,1.54,1.74h4.26c0,2.56-.87,3.59-2.51,3.59h-8.1v-3.59Z"/>
        <path class="cls-2" d="M289.67,34.9l12.82.05v-.92c0-6.26-3.23-8.51-10-8.51v-7.69c11.74,0,18.62,5.59,18.62,16.21v.87h4.46v7.69h-25.9v-7.69Z"/>
        <path class="cls-2" d="M314.55,34.9h4.72v-14.1l8.62-2.26v7.13c14.41-7.28,16.21-7.85,18.57-7.85,6.46,0,13.69,6.62,13.69,17.08,0,5.18-2.05,7.69-6.21,7.69h-39.39v-7.69ZM351.58,34.9c0-4.92-3.08-9.23-6.36-9.23-.87,0-2.77.67-17.33,5.95v3.28h23.69Z"/>
        <path class="cls-2" d="M361.94,52.54v-6.77c1.95.62,3.74.97,5.44.97,3.85,0,6.36-2.56,6.36-6v-20.05l8.62-2.26v22.36c0,9.18-4.41,13.85-13.23,13.85-2.72,0-5.85-1.18-7.18-2.1Z"/>
        <path class="cls-2" d="M180.79,92.19c0-5.85,2.72-12.82,13.44-12.82,3.95,0,8.05.77,10.97,1.64v15.44h5.28v7.69h-18c-9.23,0-11.69-6.31-11.69-11.95ZM189.66,66.7c2.15,0,3.95,1.79,3.95,3.95s-1.79,4.05-3.95,4.05-4.05-1.79-4.05-4.05,1.79-3.95,4.05-3.95ZM192.89,96.45h3.69v-9.28c-1.23-.36-2.31-.51-3.13-.51-3.33,0-4.97,2.05-4.97,5.28,0,2.46,1.74,4.51,4.41,4.51ZM198.84,66.7c2.15,0,3.95,1.79,3.95,3.95s-1.79,4.05-3.95,4.05-4.05-1.79-4.05-4.05,1.79-3.95,4.05-3.95Z"/>
        <path class="cls-2" d="M209.46,96.45h8.72v7.69h-8.72v-7.69Z"/>
        <path class="cls-2" d="M217.15,96.45h8.72v7.69h-8.72v-7.69Z"/>
        <path class="cls-2" d="M224.85,96.45h5.79c-.72-1.33-1.38-2.87-1.38-5.08,0-8.05,3.54-12.05,12.21-12.05,2.62,0,5.74.31,9.38,1.13v7.69c-3.9-1.13-5.79-1.49-7.85-1.49-4.26,0-5.18,2.05-5.18,4.72,0,2.87,1.28,5.08,4.87,5.08h11.54c0,5.18-2.15,7.69-6.26,7.69h-23.13v-7.69Z"/>
        <path class="cls-2" d="M259.36,96.45v-25.8l8.62-2.26v28.05h4.56v7.69h-7.03c-4.1,0-6.15-2.46-6.15-7.69Z"/>
        <path class="cls-2" d="M271.52,96.45h6.1v-14.21l8.62-2.26v16.46h5.33v-7.8l8.62-2.26v10.05h5.23v-14.21l8.62-2.26v16.46c0,5.23-2.1,7.69-6.26,7.69h-36.26v-7.69Z"/>
        <path class="cls-2" d="M336.75,87.47c3.64-2.41,6.21-4.21,6.21-6.72,0-1.95-1.44-3.49-4.51-3.49-3.23,0-6.62,1.13-9.79,3.08l-.05-7.54c3.44-1.9,6.72-2.87,10.72-2.87,6.97,0,11.49,4.15,11.49,10.46,0,4.87-2.82,7.74-5.74,10.1-3.54,2.82-7.59,4.36-7.9,6.46h13.69v7.18h-23.03v-5.13c.05-5.9,4.72-8.82,8.92-11.54Z"/>
        <path class="cls-2" d="M370.71,97.52h-17.18v-5.95l13.13-21.03h12.56v20.26h4.51v6.72h-4.51v6.62h-8.51v-6.62ZM370.71,90.8v-13.08h-.92l-8.1,13.08h9.03Z"/>
      </g>
      <line class="cls-1" x1="416.11" y1="3.57" x2="416.11" y2="122.9"/>
    </g>
  </g>
</svg>