<?xml version="1.0" encoding="UTF-8"?>
<svg id="Layer_2" data-name="Layer 2" xmlns="http://www.w3.org/2000/svg" viewBox="0 0 139.32 55.29">
  <defs>
    <style>
      .cls-1 {
        fill: #fcd903;
      }
    </style>
  </defs>
  <g id="Layer_1-2" data-name="Layer 1">
    <g>
      <g>
        <path d="M133.67,33.76V.94h-16.33l-14,22.02c2.13,3.42,3.35,7.53,3.35,12.03,0,3.75-.85,7.27-2.37,10.39h16.61v9.01h12.75v-9.01h5.65v-11.61h-5.65ZM120.92,33.76h-11.22l11.22-17.79v17.79Z"/>
        <path d="M86.11,16.28L96.49.93h-16.19l-8.57,12.64c1.98,7.23.58,15.43-4.02,22.46l-4.21,6.22c2.64,7.51,9.48,13.05,19.25,13.05,11.53,0,20.69-8.63,20.69-20.31,0-10.61-7.56-18.1-17.33-18.71ZM82.75,42.77c-4.04,0-7.1-3.13-7.1-7.56s3.06-7.56,7.1-7.56,7.11,3.13,7.11,7.56-3.06,7.56-7.11,7.56Z"/>
        <path d="M48.92,0c-11.53,0-20.69,8.63-20.69,20.31,0,10.61,7.56,18.1,17.33,18.71l-10.38,15.34h16.19l13.64-20.1C75.06,18.91,66.97,0,48.92,0ZM48.92,27.64c-4.05,0-7.11-3.13-7.11-7.56s3.06-7.57,7.11-7.57,7.1,3.13,7.1,7.57-3.06,7.56-7.1,7.56Z"/>
      </g>
      <polygon class="cls-1" points="30.18 33.76 30.18 45.28 20.85 45.28 20.85 54.61 9.33 54.61 9.33 45.28 0 45.28 0 33.76 9.33 33.76 9.33 24.43 20.85 24.43 20.85 33.76 30.18 33.76"/>
    </g>
  </g>
</svg>