<?xml version="1.0" encoding="UTF-8"?>
<svg id="Layer_2" data-name="Layer 2" xmlns="http://www.w3.org/2000/svg" viewBox="0 0 237.54 94.27">
  <defs>
    <style>
      .cls-1 {
        fill: #fff;
      }

      .cls-2 {
        fill: #fcd903;
      }
    </style>
  </defs>
  <g id="Layer_1-2" data-name="Layer 1">
    <g>
      <g>
        <path class="cls-1" d="M227.91,57.56V1.6h-27.85l-23.87,37.55c3.64,5.83,5.71,12.83,5.71,20.5,0,6.39-1.45,12.39-4.04,17.71h28.32v15.36h21.74v-15.36h9.63v-19.79h-9.63ZM206.17,57.56h-19.13l19.13-30.33v30.33Z"/>
        <path class="cls-1" d="M146.82,27.75L164.52,1.59h-27.6l-14.62,21.55c3.37,12.33,1,26.32-6.85,38.29l-7.19,10.6c4.5,12.81,16.17,22.24,32.82,22.24,19.66,0,35.28-14.71,35.28-34.62,0-18.09-12.89-30.85-29.55-31.9ZM141.08,72.93c-6.89,0-12.11-5.34-12.11-12.9s5.21-12.89,12.11-12.89,12.12,5.34,12.12,12.89-5.21,12.9-12.12,12.9Z"/>
        <path class="cls-1" d="M83.42,0c-19.66,0-35.28,14.71-35.28,34.63,0,18.09,12.89,30.85,29.55,31.89l-17.7,26.16h27.6l23.25-34.28C127.98,32.24,114.19,0,83.42,0ZM83.42,47.13c-6.9,0-12.12-5.34-12.12-12.89s5.21-12.9,12.12-12.9,12.1,5.34,12.1,12.9-5.21,12.89-12.1,12.89Z"/>
      </g>
      <polygon class="cls-2" points="51.45 57.56 51.45 77.21 35.55 77.21 35.55 93.11 15.91 93.11 15.91 77.21 0 77.21 0 57.56 15.91 57.56 15.91 41.66 35.55 41.66 35.55 57.56 51.45 57.56"/>
    </g>
  </g>
</svg>